HIERARCHY
ROOT Hips
{
	OFFSET 0.000000 0.000000 0.000000
	CHANNELS 6 Xposition Yposition Zposition Zrotation Yrotation Xrotation 
	JOINT LeftUpLeg_virtual
	{
		OFFSET 0.000000 0.000000 0.000000
		CHANNELS 3 Zrotation Yrotation Xrotation
		JOINT LeftUpLeg
		{
			OFFSET 10.205400 -3.823500 0.155100
			CHANNELS 3 Zrotation Yrotation Xrotation
			JOINT LeftLeg
			{
				OFFSET 0.708757 -12.982077 0.567790
				CHANNELS 3 Zrotation Yrotation Xrotation
				JOINT LeftFoot
				{
					OFFSET -0.708756 -10.717838 -2.184338
					CHANNELS 3 Zrotation Yrotation Xrotation
					JOINT LeftToeBase
					{
						OFFSET 0.108149 -7.191104 7.560241
						CHANNELS 3 Zrotation Yrotation Xrotation
						End Site
						{
							OFFSET 0.000000 0.000000 0.000000
						}
					}
				}
			}
		}
	}
	JOINT RightUpLeg_virtual
	{
		OFFSET 0.000000 0.000000 0.000000
		CHANNELS 3 Zrotation Yrotation Xrotation
		JOINT RightUpLeg
		{
			OFFSET -10.205400 -3.823500 0.005500
			CHANNELS 3 Zrotation Yrotation Xrotation
			JOINT RightLeg
			{
				OFFSET -0.708756 -12.982134 0.610632
				CHANNELS 3 Zrotation Yrotation Xrotation
				JOINT RightFoot
				{
					OFFSET 0.708754 -10.717769 -1.945823
					CHANNELS 3 Zrotation Yrotation Xrotation
					JOINT RightToeBase
					{
						OFFSET -0.108140 -7.191069 7.372968
						CHANNELS 3 Zrotation Yrotation Xrotation
						End Site
						{
							OFFSET 0.000000 0.000000 0.000000
						}
					}
				}
			}
		}
	}
	JOINT Spine_virtual
	{
		OFFSET 0.000000 0.000000 0.000000
		CHANNELS 3 Zrotation Yrotation Xrotation
		JOINT Spine
		{
			OFFSET 0.000000 6.876099 0.125700
			CHANNELS 3 Zrotation Yrotation Xrotation
			JOINT Spine1
			{
				OFFSET 0.000000 8.022060 0.146608
				CHANNELS 3 Zrotation Yrotation Xrotation
				JOINT Spine2
				{
					OFFSET 0.000000 9.168068 0.167552
					CHANNELS 3 Zrotation Yrotation Xrotation
					JOINT Neck_virtual
					{
						OFFSET 0.000000 0.000000 0.000000
						CHANNELS 3 Zrotation Yrotation Xrotation
						JOINT Neck
						{
							OFFSET 0.000000 10.314075 0.188496
							CHANNELS 3 Zrotation Yrotation Xrotation
							JOINT Head
							{
								OFFSET 0.000000 7.643700 -2.377400
								CHANNELS 3 Zrotation Yrotation Xrotation
								End Site
								{
									OFFSET 0.000000 0.000000 0.000000
								}
							}
						}
					}
					JOINT LeftShoulder_virtual
					{
						OFFSET 0.000000 0.000000 0.000000
						CHANNELS 3 Zrotation Yrotation Xrotation
						JOINT LeftShoulder
						{
							OFFSET 4.392200 8.824978 0.174984
							CHANNELS 3 Zrotation Yrotation Xrotation
							JOINT LeftArm
							{
								OFFSET 8.771219 -2.981674 -0.026999
								CHANNELS 3 Zrotation Yrotation Xrotation
								JOINT LeftForeArm
								{
									OFFSET 8.512804 0.000000 -0.000000
									CHANNELS 3 Zrotation Yrotation Xrotation
									JOINT LeftHand
									{
										OFFSET 18.484802 0.000000 -0.000000
										CHANNELS 3 Zrotation Yrotation Xrotation
										End Site
										{
											OFFSET 0.000000 0.000000 0.000000
										}
									}
								}
							}
						}
					}
					JOINT RightShoulder_virtual
					{
						OFFSET 0.000000 0.000000 0.000000
						CHANNELS 3 Zrotation Yrotation Xrotation
						JOINT RightShoulder
						{
							OFFSET -4.392200 8.824993 0.141379
							CHANNELS 3 Zrotation Yrotation Xrotation
							JOINT RightArm
							{
								OFFSET -8.771282 -2.981682 -0.094208
								CHANNELS 3 Zrotation Yrotation Xrotation
								JOINT RightForeArm
								{
									OFFSET -8.494598 0.000000 0.000000
									CHANNELS 3 Zrotation Yrotation Xrotation
									JOINT RightHand
									{
										OFFSET -18.483803 0.000000 0.000001
										CHANNELS 3 Zrotation Yrotation Xrotation
										End Site
										{
											OFFSET 0.000000 0.000000 0.000000
										}
									}
								}
							}
						}
					}
				}
			}
		}
	}
}
MOTION
Frames: 4
Frame Time: 0.033333
-0.017616 36.470875 -12.312199 179.989582 0.757279 179.902115 -1.929886 -3.108948 9.522598 -8.572793 1.333173 -16.908663 12.564556 4.344312 16.817772 -5.043504 -2.950173 7.406364 0.000000 0.000000 0.000000 2.417555 -1.347725 7.872985 -3.168203 4.167198 -12.320493 -8.485473 1.944766 17.202537 11.110308 3.421944 7.325263 0.000000 0.000000 0.000000 1.143753 0.501924 -3.075968 -5.604457 2.958118 -4.006843 0.199338 -2.923433 3.041490 -0.007811 -0.004625 0.006175 -0.332575 -1.152241 4.771200 -0.645617 -2.275488 5.688609 0.000000 0.000000 0.000000 1.119001 -0.242650 2.201473 6.349702 -1.750151 -4.222242 -17.720694 31.589300 -36.214192 1.833214 -43.383050 -6.581760 0.000000 0.000000 0.000000 -2.246635 0.418501 1.693453 4.992044 -9.112064 -6.060377 24.912825 -30.352391 -40.239144 -1.978819 34.298628 -3.818208 0.000000 0.000000 0.000000 
-0.013367 36.474609 -12.293518 179.954571 0.732220 179.987410 -1.714126 -2.957611 9.434476 -8.795358 0.796599 -17.011276 12.433191 4.200856 16.366767 -5.248157 -2.977777 7.034469 0.000000 0.000000 0.000000 2.387472 -1.352200 7.832435 -3.110137 3.827518 -12.331277 -8.479724 1.713255 17.409324 10.877472 3.250134 7.299855 0.000000 0.000000 0.000000 1.127120 0.491019 -3.128259 -5.636559 2.960731 -4.065000 0.194256 -2.931213 3.011722 0.006037 -0.012943 -0.013470 -0.342030 -1.209450 4.794383 -0.642134 -2.276597 5.661173 0.000000 0.000000 0.000000 1.125214 -0.228750 2.240682 6.323014 -1.736729 -4.263842 -17.642957 31.508899 -36.188627 1.836907 -43.361914 -6.437226 0.000000 0.000000 0.000000 -2.248083 0.394279 1.735874 5.021159 -9.098807 -6.002185 24.928456 -30.321283 -40.269341 -2.007694 34.284350 -3.865363 0.000000 0.000000 0.000000 
-0.012131 36.477207 -12.273368 -179.958710 0.710199 179.907060 -1.641059 -3.000900 9.466648 -8.801992 0.790459 -16.998896 12.416235 4.396699 16.445455 -5.197626 -2.990771 6.994406 0.000000 0.000000 0.000000 2.471167 -1.406798 7.862358 -3.096109 3.821189 -12.288531 -8.504336 1.725481 17.337327 10.972249 3.314421 7.381192 0.000000 0.000000 0.000000 1.205480 0.400135 -3.045024 -5.610569 3.112593 -4.048388 0.211277 -2.791634 3.041571 0.014906 -0.065110 0.009631 -0.381443 -1.295293 4.793461 -0.664700 -2.317082 5.711014 0.000000 0.000000 0.000000 1.068325 -0.275566 2.265513 6.319256 -1.753906 -4.328962 -17.663349 31.407214 -36.236291 1.850698 -43.375796 -6.620972 0.000000 0.000000 0.000000 -2.269144 0.343359 1.666609 5.004487 -9.149721 -6.009306 24.986429 -30.379350 -40.208221 -2.021748 34.294223 -3.893218 0.000000 0.000000 0.000000 
-0.009392 36.477535 -12.258273 179.961865 0.691271 179.976632 -1.710939 -3.051843 9.433431 -8.785662 0.756069 -17.048815 12.437540 4.242616 16.377675 -5.196282 -2.975486 7.001466 0.000000 0.000000 0.000000 2.391724 -1.434617 7.811280 -3.115811 3.739093 -12.348457 -8.477576 1.786294 17.371446 10.915139 3.245139 7.364686 0.000000 0.000000 0.000000 1.173186 0.448544 -3.086498 -5.652346 2.985043 -4.110361 0.180298 -2.906612 3.031228 0.009985 0.003053 0.014424 -0.350933 -1.142896 4.824813 -0.641561 -2.314883 5.769696 0.000000 0.000000 0.000000 1.089743 -0.222394 2.236082 6.317798 -1.695929 -4.255724 -17.738466 31.355650 -36.257369 1.857211 -43.424946 -6.675387 0.000000 0.000000 0.000000 -2.267787 0.385746 1.758104 5.007950 -9.090542 -6.043395 25.060751 -30.338348 -40.223582 -2.016043 34.260338 -3.865525 0.000000 0.000000 0.000000 
